<?xml version="1.0" encoding="UTF-8" standalone="no"?>
<!DOCTYPE svg PUBLIC "-//W3C//DTD SVG 1.1//EN" "http://www.w3.org/Graphics/SVG/1.1/DTD/svg11.dtd">
<svg width="204" height="61" viewBox="0 0 408 122" version="1.1" xmlns="http://www.w3.org/2000/svg" xmlns:xlink="http://www.w3.org/1999/xlink" xml:space="preserve" xmlns:serif="http://www.serif.com/" style="fill-rule:evenodd;clip-rule:evenodd;stroke-linejoin:round;stroke-miterlimit:2;">
    <g transform="matrix(0.8,0,0,0.8,-41.1565,-107.691)">
        <g transform="matrix(155,0,0,155,27.5756,250.864)">
            <path d="M0.306,-0.667C0.368,-0.667 0.415,-0.668 0.452,-0.648C0.491,-0.629 0.512,-0.581 0.512,-0.526C0.512,-0.399 0.403,-0.393 0.294,-0.393L0.294,-0.667L0.306,-0.667ZM0.346,-0.342C0.477,-0.342 0.552,-0.288 0.552,-0.191C0.552,-0.095 0.473,-0.053 0.388,-0.051L0.294,-0.051L0.294,-0.342L0.346,-0.342ZM0.154,-0L0.463,-0C0.625,-0 0.701,-0.09 0.701,-0.186C0.701,-0.306 0.612,-0.363 0.498,-0.373C0.627,-0.412 0.661,-0.476 0.661,-0.551C0.661,-0.645 0.584,-0.719 0.454,-0.719L0.232,-0.718L0.154,-0.718L0.154,-0Z" style="fill:rgb(234,26,120);fill-rule:nonzero;"/>
        </g>
        <g transform="matrix(155,0,0,155,137.781,250.864)">
            <path d="M0.368,0.016L0.457,-0.011L0.457,-0.32C0.457,-0.454 0.376,-0.494 0.289,-0.494L0.273,-0.494C0.17,-0.494 0.086,-0.428 0.075,-0.349L0.179,-0.373C0.187,-0.414 0.212,-0.446 0.256,-0.446C0.308,-0.446 0.342,-0.407 0.343,-0.334L0.342,-0.275C0.294,-0.271 0.246,-0.273 0.18,-0.253C0.118,-0.234 0.055,-0.18 0.055,-0.1C0.055,-0.055 0.084,0.014 0.177,0.014C0.243,0.014 0.311,-0.023 0.343,-0.076L0.368,0.016ZM0.225,-0.061C0.199,-0.061 0.174,-0.079 0.174,-0.109C0.174,-0.147 0.188,-0.184 0.242,-0.208C0.287,-0.225 0.314,-0.235 0.341,-0.241L0.34,-0.136C0.318,-0.084 0.261,-0.061 0.225,-0.061Z" style="fill:rgb(234,26,120);fill-rule:nonzero;"/>
        </g>
        <g transform="matrix(155,0,0,155,213.731,250.864)">
            <path d="M0.247,0.234C0.396,0.234 0.504,0.154 0.504,0.069C0.504,0.027 0.488,-0.008 0.431,-0.037C0.385,-0.06 0.311,-0.089 0.237,-0.117L0.292,-0.154C0.407,-0.161 0.484,-0.225 0.484,-0.321C0.484,-0.423 0.405,-0.489 0.278,-0.489C0.15,-0.489 0.053,-0.423 0.053,-0.321C0.053,-0.228 0.125,-0.166 0.232,-0.155L0.169,-0.113L0.121,-0.086L0.121,-0.054C0.134,-0.048 0.17,-0.032 0.21,-0.015C0.134,-0.005 0.02,0.032 0.02,0.111C0.02,0.192 0.126,0.234 0.247,0.234ZM0.269,-0.447C0.329,-0.447 0.354,-0.4 0.354,-0.321C0.354,-0.243 0.329,-0.196 0.269,-0.196C0.209,-0.196 0.184,-0.243 0.184,-0.321C0.184,-0.4 0.209,-0.447 0.269,-0.447ZM0.264,0.192C0.192,0.192 0.128,0.149 0.13,0.095C0.131,0.062 0.189,0.012 0.257,0.005C0.279,0.015 0.299,0.024 0.315,0.031C0.351,0.048 0.397,0.072 0.397,0.114C0.397,0.159 0.341,0.192 0.264,0.192Z" style="fill:rgb(234,26,120);fill-rule:nonzero;"/>
        </g>
        <g transform="matrix(155,0,0,155,291.231,250.864)">
            <path d="M0.218,-0.494C0.131,-0.494 0.054,-0.441 0.054,-0.343C0.054,-0.265 0.112,-0.205 0.206,-0.185L0.28,-0.166C0.32,-0.157 0.335,-0.131 0.335,-0.107C0.335,-0.066 0.289,-0.053 0.246,-0.053C0.211,-0.053 0.163,-0.084 0.151,-0.125L0.043,-0.098C0.066,-0.025 0.141,0.006 0.245,0.006C0.359,0.006 0.423,-0.067 0.423,-0.144C0.423,-0.215 0.369,-0.264 0.304,-0.28L0.241,-0.295C0.181,-0.31 0.142,-0.339 0.142,-0.38C0.142,-0.419 0.177,-0.44 0.225,-0.44C0.254,-0.44 0.295,-0.419 0.304,-0.37L0.41,-0.385C0.385,-0.472 0.32,-0.494 0.218,-0.494Z" style="fill:rgb(234,26,120);fill-rule:nonzero;"/>
        </g>
        <g transform="matrix(155,0,0,155,357.416,250.864)">
            <path d="M0.306,-0.417C0.342,-0.417 0.367,-0.406 0.381,-0.384C0.396,-0.361 0.399,-0.338 0.399,-0.285L0.398,-0L0.518,-0L0.519,-0.315C0.519,-0.429 0.452,-0.489 0.357,-0.489C0.285,-0.489 0.239,-0.462 0.208,-0.416L0.208,-0.75L0.088,-0.67L0.088,-0L0.207,-0L0.207,-0.335C0.214,-0.363 0.235,-0.417 0.306,-0.417Z" style="fill:rgb(234,26,120);fill-rule:nonzero;"/>
        </g>
        <g transform="matrix(155,0,0,155,439.876,250.864)">
            <path d="M0.415,0.023L0.505,-0.022L0.505,-0.509L0.385,-0.435L0.385,-0.139C0.38,-0.111 0.361,-0.063 0.293,-0.063C0.219,-0.063 0.201,-0.115 0.2,-0.199L0.201,-0.509L0.081,-0.435L0.08,-0.163C0.08,-0.049 0.145,0.011 0.24,0.011C0.318,0.011 0.361,-0.02 0.392,-0.074L0.415,0.023Z" style="fill:rgb(234,26,120);fill-rule:nonzero;"/>
        </g>
        <g transform="matrix(155,0,0,155,521.716,250.864)">
            <path d="M0.072,-0.636C0.072,-0.623 0.146,-0.55 0.157,-0.55C0.17,-0.55 0.243,-0.62 0.243,-0.636C0.243,-0.649 0.172,-0.722 0.157,-0.722C0.143,-0.722 0.072,-0.647 0.072,-0.636ZM0.096,-0L0.216,-0L0.216,-0.509L0.096,-0.436L0.096,-0Z" style="fill:rgb(234,26,120);fill-rule:nonzero;"/>
        </g>
    </g>
</svg>
